<?xml version="1.0" encoding="UTF-8"?>
<!DOCTYPE svg PUBLIC "-//W3C//DTD SVG 1.1//EN" "http://www.w3.org/Graphics/SVG/1.1/DTD/svg11.dtd">
<!-- Creator: CorelDRAW 2021 (64 Bit) -->
<svg xmlns="http://www.w3.org/2000/svg" xml:space="preserve" width="2.0318mm" height="2.0318mm" version="1.1" style="shape-rendering:geometricPrecision; text-rendering:geometricPrecision; image-rendering:optimizeQuality; fill-rule:evenodd; clip-rule:evenodd"
viewBox="0 0 203.18 203.18"
 xmlns:xlink="http://www.w3.org/1999/xlink"
 xmlns:xodm="http://www.corel.com/coreldraw/odm/2003">
 <defs>
  <style type="text/css">
   <![CDATA[
    .fil5 {fill:#028BCF}
    .fil1 {fill:#0294D4}
    .fil11 {fill:#048BCC}
    .fil3 {fill:#049393}
    .fil12 {fill:#0689C7}
    .fil0 {fill:#52BC94}
    .fil7 {fill:#53BEA1}
    .fil9 {fill:#553993}
    .fil10 {fill:#56BF97}
    .fil2 {fill:#930C73}
    .fil8 {fill:#9A4599}
    .fil6 {fill:#9C4498}
    .fil4 {fill:#EA0C74}
   ]]>
  </style>
 </defs>
 <g id="Camada_x0020_1">
  <metadata id="CorelCorpID_0Corel-Layer"/>
  <path class="fil0" d="M157.47 200.16c-2.41,-3.8 -4.59,-7.91 -6.51,-11.49 -1.78,-3.3 -4.34,-7.57 -6.36,-10.95 -5.22,-8.72 -4.63,-7.21 -2.27,-11.34l25.67 -44.65c1.72,-3.06 5.31,-8.17 6.25,-11.52 -6.42,0.27 -14.6,-0.52 -20.66,0.13 -6.61,0.7 -13.25,0.56 -20.03,0.53l-39.75 -0.12c-0.4,-0.32 -0.93,0.49 -0.3,-0.56l56.94 -0.06c0.13,-0.02 0.26,-0.05 0.38,-0.07l0.94 -0.41c2.74,1.39 17.92,0.56 22.32,0.38 -1.18,-4.31 -10.22,-16.03 -10.1,-19.38l30.01 0.18c-4.27,11.84 -0.09,23.08 4.99,33.87 1.09,2.31 4.19,7.26 4.16,9.78 -0.07,8.97 -16.34,0.08 -18.91,9.3 -1.34,4.79 1.71,7.2 1.56,11.61 -0.19,5.18 -4.33,4.79 -8.03,6 2.94,3.25 3.9,8.09 0.01,10.64 -3.44,2.26 -7.71,2.39 -8.89,7.09 -1.25,4.97 0.38,8.43 -2.17,13.82 -1.84,3.9 -4.09,6.52 -9.25,7.22z"/>
  <path class="fil1" d="M142.24 195.09c-3.88,-2.32 -7.66,-5.04 -11.55,-7.45l-11.37 -7.31c-2.43,4.76 -2.8,18.53 -5.34,22.85 -0.43,-0.38 -0.23,-0.16 -0.72,-0.77l-12.66 -21.18c-8.04,-13.42 -7.36,-8.02 0.47,-21.85l9.76 -16.95c0.59,-1.59 -1.3,-3.73 -2.17,-5.31 -2.1,-3.86 -11.77,-19.6 -12.6,-22.13 -0.29,-2.33 -0.97,-1.13 -1.1,-4.33 10.76,0.38 23.88,0.13 35.04,0.12 5.68,0 7.53,-0.92 8.93,2.27l8.53 14.62c1.9,2.83 0.41,2.35 3.35,5.58 0.49,0.54 0.67,0.81 1.03,1.55l0.96 2.14c1.24,3.05 3.26,3.9 1.68,5.55 -1.51,0.85 -0.38,0.31 -1.89,0.21 -6.84,-0.44 -36.29,-0.4 -39.09,0.2 -0.14,2.74 1.99,4.55 3.27,6.97l3.68 6.6c2.86,4.2 2.5,4.59 4.21,7.38l8.87 15.14c2.73,6.37 1.14,0.75 3.74,6.38 0.82,1.76 3.06,4.46 3.68,6.15 1.04,2.79 1.05,1.7 1.29,3.57z"/>
  <path class="fil2" d="M196.51 57.86c-1.57,1.13 -11.81,0.54 -13.9,0.66l-12.92 21.67c-0.34,0.61 -0.58,1.57 -1.07,2.52 -0.69,1.35 -1.54,2.61 -2.29,3.97 -2.6,4.74 -0.81,3.79 -2.34,3.97l-22.95 0.12 -9.23 -15.97c-1.48,-2.8 -8.72,-14.25 -8.94,-16.28l51.15 -0.06 -11.97 -21.01c-1.23,-2.16 -3.51,-4.93 -3.78,-7.26 0.05,-1.77 5.32,-10.12 6.8,-12.83 0.44,-0.8 0.53,-1.16 1.09,-2.04 1.23,-1.92 0.36,-1.08 1.69,-1.32 2.3,0.84 8.06,6.2 9.76,7.9 2.71,2.72 5.8,6.6 8.15,10.1 4.79,7.13 9.04,15.86 10.75,25.86z"/>
  <path class="fil3" d="M157.47 200.16c-5.83,0.41 -11.08,-2.45 -15.23,-5.07 -0.24,-1.87 -0.25,-0.78 -1.29,-3.57 -0.62,-1.69 -2.86,-4.39 -3.68,-6.15 -2.6,-5.63 -1.01,-0.01 -3.74,-6.38l-8.87 -15.14c-1.71,-2.79 -1.35,-3.18 -4.21,-7.38l-3.68 -6.6c-1.28,-2.42 -3.41,-4.23 -3.27,-6.97 2.8,-0.6 32.25,-0.64 39.09,-0.2 1.51,0.1 0.38,0.64 1.89,-0.21 1.58,-1.65 -0.44,-2.5 -1.68,-5.55l-0.96 -2.14c-0.36,-0.74 -0.54,-1.01 -1.03,-1.55 -2.94,-3.23 -1.45,-2.75 -3.35,-5.58l-8.53 -14.62c-1.4,-3.19 -3.25,-2.27 -8.93,-2.27 -11.16,0.01 -24.28,0.26 -35.04,-0.12 0.13,3.2 0.81,2 1.1,4.33l-2.25 -4.24 39.75 0.12c6.78,0.03 13.42,0.17 20.03,-0.53 6.06,-0.65 14.24,0.14 20.66,-0.13 -0.94,3.35 -4.53,8.46 -6.25,11.52l-25.67 44.65c-2.36,4.13 -2.95,2.62 2.27,11.34 2.02,3.38 4.58,7.65 6.36,10.95 1.92,3.58 4.1,7.69 6.51,11.49z"/>
  <path class="fil4" d="M159.12 49.28l-57.01 0.05c0.16,-0.91 26.37,-46.95 28.34,-49.35l7.47 12.22c2.45,4.17 4.8,8.4 7.16,12.43l14.04 24.65z"/>
  <path class="fil5" d="M138.26 103.55l-51.75 0.11c0.76,-2.51 4.44,-8.14 6.1,-11.03 2.16,-3.78 4.24,-7.32 6.53,-11.29 4.54,-7.85 8.76,-15.07 13.01,-22.54 1.61,1.3 5.33,8.52 6.81,11.06l19.3 33.69z"/>
  <path class="fil6" d="M80.62 96.15c-2.49,-4.33 -20.31,-34.47 -20.62,-36.43l41.68 0.03c-0.44,1.94 -20.24,35.8 -21.06,36.4z"/>
  <path class="fil4" d="M194 90.83l-30.01 -0.18c1.53,-0.18 -0.26,0.77 2.34,-3.97 0.75,-1.36 1.6,-2.62 2.29,-3.97 0.49,-0.95 0.73,-1.91 1.07,-2.52l12.92 -21.67c2.09,-0.12 12.33,0.47 13.9,-0.66 2.61,9.71 2.56,25.35 -2.51,32.97z"/>
  <path class="fil7" d="M44.57 103.46c1.44,1.79 20.15,34.42 20.21,35.32l-40.54 -0.06c0.18,-1.37 19.28,-34.35 20.33,-35.26z"/>
  <path class="fil8" d="M93.33 49.29l-40.14 0.05c0.43,-1.79 19.18,-34.08 20.31,-34.97l10.03 17.49c1.62,3.06 9.33,15.51 9.8,17.43z"/>
  <path class="fil7" d="M42.58 87.92c-1.13,2.84 -14.99,27.15 -16.7,29.19l-14.88 -25.19c-1.04,-1.82 -2.51,-2.6 -1.74,-2.06 -0.23,-1.88 -0.38,-1.11 0.15,-2l33.17 0.06z"/>
  <path class="fil9" d="M151.77 109.65l-10.73 -18.88 22.95 -0.12c-0.12,3.35 8.92,15.07 10.1,19.38 -4.4,0.18 -19.58,1.01 -22.32,-0.38z"/>
  <path class="fil4" d="M97.52 35.61c-2.1,-2.32 -5.57,-9.37 -7.45,-12.52 -1.82,-3.04 -6.03,-9.65 -7.17,-12.67l29.26 -0.11c-0.51,1.72 -13.47,24.28 -14.64,25.3z"/>
  <path class="fil10" d="M87.97 110.24c-0.72,2.31 -13,23.64 -14.48,25.09 -1.66,-1.98 -14.2,-23.16 -14.76,-25.06l29.24 -0.03z"/>
  <path class="fil11" d="M103.15 140.52c-1.85,4.17 -11.91,21.73 -13.19,22.79 -2.22,-3.62 -4.36,-7.26 -6.63,-11.09 -1.59,-2.67 -5.7,-8.83 -6.57,-11.66l26.39 -0.04z"/>
  <polygon class="fil4" points="54.54,28.51 40.97,5.54 67.64,5.36 "/>
  <path class="fil8" d="M44.71 80.81l-25.78 0.05c1.15,-3.75 10.18,-17.09 12.66,-22.52 1.5,1.29 5.34,8.72 6.61,10.85 1.45,2.43 5.76,9.34 6.51,11.62z"/>
  <path class="fil4" d="M40.12 57.57c-1.15,-1.16 -12.5,-20.89 -12.75,-22.17l25.55 -0.06c-0.14,0.93 -11.54,21.03 -12.8,22.23z"/>
  <path class="fil6" d="M167.85 14c-1.33,0.24 -0.46,-0.6 -1.69,1.32 -0.56,0.88 -0.65,1.24 -1.09,2.04 -1.48,2.71 -6.75,11.06 -6.8,12.83 -1.27,-0.91 -15.76,-26.14 -16.13,-27.79 5.13,1.47 9.09,2.53 13.86,4.61 3.05,1.33 10.18,4.9 11.85,6.99z"/>
  <path class="fil8" d="M70.41 93.62l-22.92 0.11c1.32,-3.16 3.84,-6.99 5.56,-9.96 1.65,-2.86 4.66,-7.42 5.62,-9.93l1.68 2.13c2.22,4.1 9.12,14.94 10.06,17.65z"/>
  <path class="fil11" d="M72.33 152.99c0.47,0.63 0.24,0.36 0.66,1.11 2,3.5 8.55,14.23 9.13,16.52l-21.56 -0.2 10.7 -18.49 1.07 1.06z"/>
  <path class="fil12" d="M66.22 144.87l-6.66 11.72c-0.05,0.09 -0.45,0.66 -0.54,0.78 -0.41,0.5 -0.32,0.39 -0.66,0.66 -1.11,-1.34 -7.17,-11.79 -7.54,-13.27l15.4 0.11z"/>
 </g>
</svg>
